# xmcd CD database file
#
# Track frame offsets:
#	150
#	18694
#	40969
#	75751
#	123583
#	176590
#	214597
#	266179
#
# Disc length: 4193 seconds
#
# Revision: 0
# Processed by: cddbd v1.5.2PL0 Copyright (c) Steve Scherf et al.
# Submitted via: CDex 1.70beta2
#
DISCID=68105f08
DTITLE=Medeski Martin and Wood - Phishing with MMW
DYEAR=1995
DGENRE=Jazz
TTITLE0=Spacey Tribal Jam
TTITLE1=Funky Thing
TTITLE2=Think
TTITLE3=Dracula
TTITLE4=Henduck
TTITLE5=Strance of The Spirit Red Gator
TTITLE6=Is There Anybody Here That Loves My Jesus
TTITLE7=The Lover
EXTD=YEAR: 1995
EXTT0=
EXTT1=
EXTT2=
EXTT3=
EXTT4=
EXTT5=
EXTT6=
EXTT7=
PLAYORDER=
